<mxfile host="Electron" modified="2024-06-05T10:24:35.610Z" agent="Mozilla/5.0 (X11; Linux x86_64) AppleWebKit/537.36 (KHTML, like Gecko) draw.io/24.4.13 Chrome/124.0.6367.207 Electron/30.0.6 Safari/537.36" etag="cyo-RHebaneiNtllIwlE" version="24.4.13" type="device">
  <diagram name="Page-1" id="QlgbeXBJoWp4sKI7s9t7">
    <mxGraphModel dx="819" dy="566" grid="1" gridSize="10" guides="1" tooltips="1" connect="1" arrows="1" fold="1" page="1" pageScale="1" pageWidth="827" pageHeight="583" math="0" shadow="0">
      <root>
        <mxCell id="0" />
        <mxCell id="1" parent="0" />
        <mxCell id="qj-8Z82OXFriC5wko5qp-7" value="" style="html=1;whiteSpace=wrap;aspect=fixed;shape=isoRectangle;" vertex="1" parent="1">
          <mxGeometry x="69.99999999999997" y="142" width="313.33" height="188" as="geometry" />
        </mxCell>
        <mxCell id="qj-8Z82OXFriC5wko5qp-10" value="" style="shape=flexArrow;endArrow=classic;html=1;rounded=0;fillColor=#dae8fc;strokeColor=#6c8ebf;" edge="1" parent="1">
          <mxGeometry width="50" height="50" relative="1" as="geometry">
            <mxPoint x="211.67000000000002" y="228" as="sourcePoint" />
            <mxPoint x="131.67" y="180" as="targetPoint" />
          </mxGeometry>
        </mxCell>
        <mxCell id="qj-8Z82OXFriC5wko5qp-6" value="" style="html=1;whiteSpace=wrap;shape=isoCube2;backgroundOutline=1;isoAngle=15;" vertex="1" parent="1">
          <mxGeometry x="181.67000000000002" y="167" width="90" height="100" as="geometry" />
        </mxCell>
        <mxCell id="qj-8Z82OXFriC5wko5qp-8" value="" style="shape=flexArrow;endArrow=classic;html=1;rounded=0;fillColor=#d5e8d4;strokeColor=#82b366;" edge="1" parent="1">
          <mxGeometry width="50" height="50" relative="1" as="geometry">
            <mxPoint x="226.33000000000004" y="190" as="sourcePoint" />
            <mxPoint x="226.33000000000004" y="110" as="targetPoint" />
          </mxGeometry>
        </mxCell>
        <mxCell id="qj-8Z82OXFriC5wko5qp-12" value="Y" style="text;html=1;align=center;verticalAlign=middle;whiteSpace=wrap;rounded=0;fontSize=16;" vertex="1" parent="1">
          <mxGeometry x="100.00000000000003" y="267" width="30" height="30" as="geometry" />
        </mxCell>
        <mxCell id="qj-8Z82OXFriC5wko5qp-13" value="Z" style="text;html=1;align=center;verticalAlign=middle;whiteSpace=wrap;rounded=0;fontSize=16;" vertex="1" parent="1">
          <mxGeometry x="211.67000000000002" y="70" width="30" height="30" as="geometry" />
        </mxCell>
        <mxCell id="qj-8Z82OXFriC5wko5qp-14" value="X" style="text;html=1;align=center;verticalAlign=middle;whiteSpace=wrap;rounded=0;fontSize=16;" vertex="1" parent="1">
          <mxGeometry x="101.66999999999999" y="160" width="30" height="30" as="geometry" />
        </mxCell>
        <mxCell id="qj-8Z82OXFriC5wko5qp-15" value="" style="endArrow=none;dashed=1;html=1;dashPattern=1 3;strokeWidth=2;rounded=0;" edge="1" parent="1">
          <mxGeometry width="50" height="50" relative="1" as="geometry">
            <mxPoint x="280" y="330" as="sourcePoint" />
            <mxPoint x="40" y="190" as="targetPoint" />
          </mxGeometry>
        </mxCell>
        <mxCell id="qj-8Z82OXFriC5wko5qp-21" value="" style="curved=1;endArrow=classic;html=1;rounded=0;" edge="1" parent="1">
          <mxGeometry width="50" height="50" relative="1" as="geometry">
            <mxPoint x="80" y="207" as="sourcePoint" />
            <mxPoint x="30" y="217" as="targetPoint" />
            <Array as="points">
              <mxPoint x="80" y="187" />
              <mxPoint x="60" y="167" />
              <mxPoint x="30" y="187" />
            </Array>
          </mxGeometry>
        </mxCell>
        <mxCell id="qj-8Z82OXFriC5wko5qp-11" value="" style="shape=flexArrow;endArrow=classic;html=1;rounded=0;fillColor=#f8cecc;strokeColor=#b85450;entryX=0.255;entryY=0.628;entryDx=0;entryDy=0;entryPerimeter=0;" edge="1" parent="1" target="qj-8Z82OXFriC5wko5qp-7">
          <mxGeometry width="50" height="50" relative="1" as="geometry">
            <mxPoint x="201.67000000000007" y="227" as="sourcePoint" />
            <mxPoint x="150" y="270" as="targetPoint" />
          </mxGeometry>
        </mxCell>
        <mxCell id="qj-8Z82OXFriC5wko5qp-23" value="Shoulder PCB" style="text;html=1;align=center;verticalAlign=middle;whiteSpace=wrap;rounded=0;fontSize=16;" vertex="1" parent="1">
          <mxGeometry x="290" y="221" width="60" height="29" as="geometry" />
        </mxCell>
        <mxCell id="qj-8Z82OXFriC5wko5qp-24" value="Shoulder Axis" style="text;html=1;align=center;verticalAlign=middle;whiteSpace=wrap;rounded=0;fontSize=16;" vertex="1" parent="1">
          <mxGeometry x="30" y="130" width="60" height="29" as="geometry" />
        </mxCell>
        <mxCell id="qj-8Z82OXFriC5wko5qp-25" value="IMU installation" style="text;html=1;align=center;verticalAlign=middle;whiteSpace=wrap;rounded=0;fontSize=18;" vertex="1" parent="1">
          <mxGeometry x="20" y="10" width="140" height="30" as="geometry" />
        </mxCell>
      </root>
    </mxGraphModel>
  </diagram>
</mxfile>
